{"title":"The X Factor Au - S08E03","uid":15967562,"size":408008040,"categoryP":"video","categoryS":"tv_shows","magnet":"?xt=urn:btih:e9966cd4841c4aae74eee577134dba8a45d343d7&amp;dn=The+X+Factor+Au+-+S08E03&amp;tr=udp%3A%2F%2Ftracker.leechers-paradise.org%3A6969&amp;tr=udp%3A%2F%2Fzer0day.ch%3A1337&amp;tr=udp%3A%2F%2Fopen.demonii.com%3A1337&amp;tr=udp%3A%2F%2Ftracker.coppersurfer.tk%3A6969&amp;tr=udp%3A%2F%2Fexodus.desync.com%3A6969","seeders":20,"leechers":2,"uploader":"Bullrout","files":1,"time":1475740094,"description":"The X Factor Au - S08E03\r\n\r\nMore singers from all over Australia take to the stage. An incredible story, you will not believe. Plus a familiar face returns. Then witness the most spine tingling audition of the year.\r\n\r\nComplete name                            : The X Factor Au - S08E03.mp4\r\nFormat                                   : MPEG-4\r\nFormat profile                           : Base Media / Version 2\r\nCodec ID                                 : mp42 (mp42/isom/avc1)\r\nFile size                                : 389 MiB\r\nDuration                                 : 49 min 7 s\r\nOverall bit rate mode                    : Variable\r\nOverall bit rate                         : 1 107 kb/s\r\n\r\nVideo\r\nID                                       : 2\r\nFormat                                   : AVC\r\nFormat/Info                              : Advanced Video Codec\r\nFormat profile                           :   \r\nFormat settings, CABAC                   : Yes\r\nFormat settings, ReFrames                : 3 frames\r\nCodec ID                                 : avc1\r\nCodec ID/Info                            : Advanced Video Coding\r\nDuration                                 : 49 min 7 s\r\nBit rate mode                            : Variable\r\nBit rate                                 : 976 kb/s\r\nMaximum bit rate                         : 1 000 kb/s\r\nWidth                                    : 720 pixels\r\nHeight                                   : 404 pixels\r\nDisplay aspect ratio                     : 16:9\r\nOriginal display aspect ratio            : 16:9\r\nFrame rate mode                          : Constant\r\nFrame rate                               : 25.000 FPS\r\nStandard                                 : PAL\r\nColor space                              : YUV\r\nChroma subsampling                       : 4:2:0\r\nBit depth                                : 8 bits\r\nScan type                                : Progressive\r\nBits/(Pixel*Frame)                       : 0.134\r\nStream size                              : 343 MiB (88%)\r\nWriting library                          : x264 core 112\r\nColor range                              : Limited\r\nColor primaries                          : BT.601 PAL\r\nTransfer characteristics                 : BT.470 System B, BT.470 System G\r\nMatrix coefficients                      : BT.601\r\n\r\nAudio\r\nID                                       : 1\r\nFormat                                   : AAC\r\nFormat/Info                              : Advanced Audio Codec\r\nFormat profile                           : LC\r\nCodec ID                                 : 40\r\nDuration                                 : 49 min 7 s\r\nBit rate mode                            : Variable\r\nBit rate                                 : 128 kb/s\r\nMaximum bit rate                         : 576 kb/s\r\nChannel(s)                               : 2 channels\r\nChannel positions                        : Front: L R\r\nSampling rate                            : 48.0 kHz\r\nFrame rate                               : 46.875 FPS (1024 spf)\r\nCompression mode                         : Lossy\r\nStream size                              : 45.0 MiB (12%)","torrent":{"xt":"urn:btih:e9966cd4841c4aae74eee577134dba8a45d343d7","amp;dn":"The+X+Factor+Au+-+S08E03","amp;tr":["udp%3A%2F%2Ftracker.leechers-paradise.org%3A6969","udp%3A%2F%2Fzer0day.ch%3A1337","udp%3A%2F%2Fopen.demonii.com%3A1337","udp%3A%2F%2Ftracker.coppersurfer.tk%3A6969","udp%3A%2F%2Fexodus.desync.com%3A6969"],"infoHash":"e9966cd4841c4aae74eee577134dba8a45d343d7","infoHashBuffer":{"type":"Buffer","data":[233,150,108,212,132,28,74,174,116,238,229,119,19,77,186,138,69,211,67,215]},"announce":[],"urlList":[]}}